<svg  viewBox="0 0 512 380" xmlns="http://www.w3.org/2000/svg">
<path d="M332.8 253.333H371.2C377.6 253.333 384 247 384 240.667V107.667C384 101.333 377.6 95 371.2 95H332.8C326.4 95 320 101.333 320 107.667V240.667C320 247 326.4 253.333 332.8 253.333ZM428.8 253.333H467.2C473.6 253.333 480 247 480 240.667V12.6667C480 6.33334 473.6 0 467.2 0H428.8C422.4 0 416 6.33334 416 12.6667V240.667C416 247 422.4 253.333 428.8 253.333ZM140.8 253.333H179.2C185.6 253.333 192 247 192 240.667V171C192 164.667 185.6 158.333 179.2 158.333H140.8C134.4 158.333 128 164.667 128 171V240.667C128 247 134.4 253.333 140.8 253.333ZM236.8 253.333H275.2C281.6 253.333 288 247 288 240.667V44.3333C288 38 281.6 31.6667 275.2 31.6667H236.8C230.4 31.6667 224 38 224 44.3333V240.667C224 247 230.4 253.333 236.8 253.333ZM496 316.667H64V15.8333C64 7.125 56.8 0 48 0H16C7.2 0 0 7.125 0 15.8333V348.333C0 365.849 14.3 380 32 380H496C504.8 380 512 372.875 512 364.167V332.5C512 323.792 504.8 316.667 496 316.667Z" />
</svg>
